<?xml version="1.0" encoding="iso-8859-1"?>
<!-- Generator: Adobe Illustrator 18.0.0, SVG Export Plug-In . SVG Version: 6.00 Build 0)  -->
<!DOCTYPE svg PUBLIC "-//W3C//DTD SVG 1.1//EN" "http://www.w3.org/Graphics/SVG/1.1/DTD/svg11.dtd">
<svg version="1.1" id="admin" xmlns="http://www.w3.org/2000/svg" xmlns:xlink="http://www.w3.org/1999/xlink" x="0px" y="0px"
	 width="32" height="26" viewBox="0 0 474.565 474.565" style="enable-background:new 0 0 474.565 474.565;" xml:space="preserve">
<g>
	<path d="M460.782,276.588c0-5.909-4.799-10.693-10.685-10.693H428.14c-1.896-6.189-4.411-12.121-7.393-17.75l15.544-15.544
		c2.02-2.004,3.137-4.721,3.137-7.555c0-2.835-1.118-5.553-3.137-7.563l-27.363-27.371c-2.08-2.09-4.829-3.138-7.561-3.138
		c-2.734,0-5.467,1.048-7.547,3.138l-15.576,15.552c-5.623-2.982-11.539-5.481-17.751-7.369v-21.958
		c0-5.901-4.768-10.685-10.669-10.685H311.11c-2.594,0-4.877,1.04-6.739,2.578c3.26,11.895,5.046,24.793,5.046,38.552
		c0,8.735-0.682,17.604-1.956,26.423c7.205-2.656,14.876-4.324,22.999-4.324c36.99,0,67.086,30.089,67.086,67.07
		c0,23.637-12.345,44.353-30.872,56.303c13.48,14.784,24.195,32.324,31.168,51.976c1.148,0.396,2.344,0.684,3.54,0.684
		c2.733,0,5.467-1.04,7.563-3.13l27.379-27.371c2.004-2.004,3.106-4.721,3.106-7.555s-1.102-5.551-3.106-7.563l-15.576-15.552
		c2.982-5.621,5.497-11.555,7.393-17.75h21.957c2.826,0,5.575-1.118,7.563-3.138c2.004-1.996,3.138-4.72,3.138-7.555
		L460.782,276.588z" fill="currentColor"/>
	<path d="M376.038,413.906c-16.602-48.848-60.471-82.445-111.113-87.018c-16.958,17.958-37.954,29.351-61.731,29.351
		c-23.759,0-44.771-11.392-61.713-29.351c-50.672,4.573-94.543,38.17-111.145,87.026l-9.177,27.013
		c-2.625,7.773-1.368,16.338,3.416,23.007c4.783,6.671,12.486,10.631,20.685,10.631h315.853c8.215,0,15.918-3.96,20.702-10.631
		c4.767-6.669,6.041-15.234,3.4-23.007L376.038,413.906z" fill="currentColor"/>
	<path d="M120.842,206.782c0,60.589,36.883,125.603,82.352,125.603c45.487,0,82.368-65.014,82.368-125.603
		C285.563,81.188,120.842,80.939,120.842,206.782z" fill="currentColor"/>
</g>
<g>
</g>
<g>
</g>
<g>
</g>
<g>
</g>
<g>
</g>
<g>
</g>
<g>
</g>
<g>
</g>
<g>
</g>
<g>
</g>
<g>
</g>
<g>
</g>
<g>
</g>
<g>
</g>
<g>
</g>
</svg>
